<?xml version="1.0" standalone="no"?><!DOCTYPE svg PUBLIC "-//W3C//DTD SVG 1.1//EN" "http://www.w3.org/Graphics/SVG/1.1/DTD/svg11.dtd"><svg t="1767517134396" class="icon" viewBox="0 0 1024 1024" version="1.1" xmlns="http://www.w3.org/2000/svg" p-id="6077" width="128" height="128" xmlns:xlink="http://www.w3.org/1999/xlink"><path d="M979.212083 783.627439l-106.975456-46.076778a427.901825 427.901825 0 0 0 74.109503-117.286344A434.34613 434.34613 0 0 0 547.76589 15.466331a427.901825 427.901825 0 0 0-169.162995 34.154814A434.34613 434.34613 0 0 0 111.808685 451.101322a30.288232 30.288232 0 0 0 60.254248 0 374.414097 374.414097 0 1 1 641.852737 260.994336c-70.565135-32.221523-144.674638-64.443046-180.118313-80.876023a29.643801 29.643801 0 0 0-38.021397 10.310887 104.71995 104.71995 0 0 0-15.788547 85.709251 183.01825 183.01825 0 0 0 35.765891 68.631844l7.088735 8.699812h-174.640654c-29.966016 0-67.342983-21.58842-110.842039-64.443046A1098.109503 1098.109503 0 0 1 230.061674 612.208936a584.820642 584.820642 0 0 0-47.043424-57.35431 96.664569 96.664569 0 0 0-102.464443-20.621775 92.153556 92.153556 0 0 0-54.132158 89.575834c0 44.787917 53.809943 141.774701 121.797357 220.717432a569.354311 569.354311 0 0 0 128.886092 112.77533 303.526746 303.526746 0 0 0 161.107614 51.232222H966.645689a29.966016 29.966016 0 0 0 29.966016-30.288232v-166.907489a30.288232 30.288232 0 0 0-18.044052-27.710509z m-41.88798 164.651982h-499.433606c-104.397734 0-197.840151-89.898049-244.561359-142.741347a666.341095 666.341095 0 0 1-79.587162-113.741976 193.329138 193.329138 0 0 1-27.388294-67.665198 32.221523 32.221523 0 0 1 17.721837-32.221523 28.032725 28.032725 0 0 1 11.277533-2.255507 38.665828 38.665828 0 0 1 26.099434 11.277533c8.055381 7.733166 23.521712 28.35494 40.276904 49.943361 64.443046 86.031466 163.363121 215.561989 266.149779 215.561989h251.97231a30.288232 30.288232 0 0 0 17.399622-54.776589 294.50472 294.50472 0 0 1-54.132158-51.554437 98.59786 98.59786 0 0 1-25.777219-58.965387c84.42039 38.988043 245.20579 108.264317 299.660164 131.786029z m0 0" p-id="6078" fill="#1296db"></path><path d="M718.539962 487.189427a30.288232 30.288232 0 0 1-30.288231 30.288232h-128.886092v161.107615a30.288232 30.288232 0 1 1-60.254248 0v-161.107615h-128.886092a30.288232 30.288232 0 0 1 0-60.254248h128.886092v-58.643172h-128.886092a30.288232 30.288232 0 0 1 0-60.254248h86.675897l-96.664569-96.664569a30.288232 30.288232 0 0 1 0-42.53241 32.221523 32.221523 0 0 1 42.854625 0l128.886092 128.886092 128.886092-128.886092a30.288232 30.288232 0 0 1 42.53241 0 29.643801 29.643801 0 0 1 0 42.53241l-96.664568 96.664569h86.031466a30.288232 30.288232 0 0 1 0 60.254248h-128.886092v58.643172h128.886092a30.288232 30.288232 0 0 1 30.288231 29.966016z m0 0" p-id="6079" fill="#1296db"></path></svg>